<mxfile host="app.diagrams.net" agent="Mozilla/5.0 (Windows NT 10.0; Win64; x64) AppleWebKit/537.36 (KHTML, like Gecko) Chrome/140.0.0.0 Safari/537.36" version="28.2.3">
  <diagram name="PÃ¡gina-1" id="HUTfqn3u2_gLlGgry1F0">
    <mxGraphModel dx="1056" dy="969" grid="1" gridSize="10" guides="1" tooltips="1" connect="1" arrows="1" fold="1" page="1" pageScale="1" pageWidth="1169" pageHeight="827" math="0" shadow="0">
      <root>
        <mxCell id="0" />
        <mxCell id="1" parent="0" />
        <mxCell id="lfhc9RgH_AEZunEd3_dt-44" style="edgeStyle=orthogonalEdgeStyle;rounded=0;orthogonalLoop=1;jettySize=auto;html=1;entryX=0.5;entryY=0;entryDx=0;entryDy=0;endArrow=none;endFill=0;fillColor=#fff2cc;strokeColor=#d6b656;" edge="1" parent="1" source="lfhc9RgH_AEZunEd3_dt-1" target="lfhc9RgH_AEZunEd3_dt-3">
          <mxGeometry relative="1" as="geometry" />
        </mxCell>
        <mxCell id="lfhc9RgH_AEZunEd3_dt-60" value="&lt;b&gt;1&lt;/b&gt;" style="edgeLabel;html=1;align=center;verticalAlign=middle;resizable=0;points=[];" vertex="1" connectable="0" parent="lfhc9RgH_AEZunEd3_dt-44">
          <mxGeometry x="0.0067" y="2" relative="1" as="geometry">
            <mxPoint y="-1" as="offset" />
          </mxGeometry>
        </mxCell>
        <mxCell id="lfhc9RgH_AEZunEd3_dt-1" value="USUARIO" style="rounded=0;whiteSpace=wrap;html=1;fillColor=#fff2cc;strokeColor=#d6b656;" vertex="1" parent="1">
          <mxGeometry x="465" y="160" width="120" height="60" as="geometry" />
        </mxCell>
        <mxCell id="lfhc9RgH_AEZunEd3_dt-2" value="NOTICIA" style="rounded=0;whiteSpace=wrap;html=1;fillColor=#fff2cc;strokeColor=#d6b656;" vertex="1" parent="1">
          <mxGeometry x="465" y="560" width="120" height="60" as="geometry" />
        </mxCell>
        <mxCell id="lfhc9RgH_AEZunEd3_dt-45" style="edgeStyle=orthogonalEdgeStyle;rounded=0;orthogonalLoop=1;jettySize=auto;html=1;entryX=0.5;entryY=0;entryDx=0;entryDy=0;endArrow=none;endFill=0;fillColor=#fff2cc;strokeColor=#d6b656;" edge="1" parent="1" source="lfhc9RgH_AEZunEd3_dt-3" target="lfhc9RgH_AEZunEd3_dt-2">
          <mxGeometry relative="1" as="geometry" />
        </mxCell>
        <mxCell id="lfhc9RgH_AEZunEd3_dt-61" value="&lt;b&gt;N&lt;/b&gt;" style="edgeLabel;html=1;align=center;verticalAlign=middle;resizable=0;points=[];" vertex="1" connectable="0" parent="lfhc9RgH_AEZunEd3_dt-45">
          <mxGeometry x="-0.0784" y="1" relative="1" as="geometry">
            <mxPoint as="offset" />
          </mxGeometry>
        </mxCell>
        <mxCell id="lfhc9RgH_AEZunEd3_dt-3" value="usario_faz" style="rhombus;whiteSpace=wrap;html=1;fillColor=#fff2cc;strokeColor=#d6b656;" vertex="1" parent="1">
          <mxGeometry x="481" y="369" width="90" height="90" as="geometry" />
        </mxCell>
        <mxCell id="lfhc9RgH_AEZunEd3_dt-43" style="edgeStyle=orthogonalEdgeStyle;rounded=0;orthogonalLoop=1;jettySize=auto;html=1;entryX=0.5;entryY=0;entryDx=0;entryDy=0;fillColor=#dae8fc;strokeColor=#6c8ebf;endArrow=none;endFill=0;" edge="1" parent="1" source="lfhc9RgH_AEZunEd3_dt-4" target="lfhc9RgH_AEZunEd3_dt-1">
          <mxGeometry relative="1" as="geometry" />
        </mxCell>
        <mxCell id="lfhc9RgH_AEZunEd3_dt-4" value="&lt;u&gt;id_usuario&lt;/u&gt;" style="ellipse;whiteSpace=wrap;html=1;fillColor=#dae8fc;strokeColor=#6c8ebf;" vertex="1" parent="1">
          <mxGeometry x="465" y="50" width="120" height="80" as="geometry" />
        </mxCell>
        <mxCell id="lfhc9RgH_AEZunEd3_dt-41" style="edgeStyle=orthogonalEdgeStyle;rounded=0;orthogonalLoop=1;jettySize=auto;html=1;entryX=1;entryY=0;entryDx=0;entryDy=0;fillColor=#dae8fc;strokeColor=#6c8ebf;endArrow=none;endFill=0;" edge="1" parent="1" source="lfhc9RgH_AEZunEd3_dt-6" target="lfhc9RgH_AEZunEd3_dt-1">
          <mxGeometry relative="1" as="geometry" />
        </mxCell>
        <mxCell id="lfhc9RgH_AEZunEd3_dt-6" value="Nome" style="ellipse;whiteSpace=wrap;html=1;fillColor=#dae8fc;strokeColor=#6c8ebf;" vertex="1" parent="1">
          <mxGeometry x="610" y="60" width="100" height="60" as="geometry" />
        </mxCell>
        <mxCell id="lfhc9RgH_AEZunEd3_dt-39" style="edgeStyle=orthogonalEdgeStyle;rounded=0;orthogonalLoop=1;jettySize=auto;html=1;entryX=0;entryY=0.5;entryDx=0;entryDy=0;fillColor=#dae8fc;strokeColor=#6c8ebf;endArrow=none;endFill=0;" edge="1" parent="1" source="lfhc9RgH_AEZunEd3_dt-7" target="lfhc9RgH_AEZunEd3_dt-1">
          <mxGeometry relative="1" as="geometry" />
        </mxCell>
        <mxCell id="lfhc9RgH_AEZunEd3_dt-7" value="E-mail" style="ellipse;whiteSpace=wrap;html=1;fillColor=#dae8fc;strokeColor=#6c8ebf;" vertex="1" parent="1">
          <mxGeometry x="340" y="130" width="100" height="60" as="geometry" />
        </mxCell>
        <mxCell id="lfhc9RgH_AEZunEd3_dt-40" style="edgeStyle=orthogonalEdgeStyle;rounded=0;orthogonalLoop=1;jettySize=auto;html=1;entryX=1;entryY=0.5;entryDx=0;entryDy=0;fillColor=#dae8fc;strokeColor=#6c8ebf;endArrow=none;endFill=0;" edge="1" parent="1" source="lfhc9RgH_AEZunEd3_dt-8" target="lfhc9RgH_AEZunEd3_dt-1">
          <mxGeometry relative="1" as="geometry" />
        </mxCell>
        <mxCell id="lfhc9RgH_AEZunEd3_dt-8" value="Senha" style="ellipse;whiteSpace=wrap;html=1;fillColor=#dae8fc;strokeColor=#6c8ebf;" vertex="1" parent="1">
          <mxGeometry x="610" y="140" width="100" height="60" as="geometry" />
        </mxCell>
        <mxCell id="lfhc9RgH_AEZunEd3_dt-19" style="edgeStyle=orthogonalEdgeStyle;rounded=0;orthogonalLoop=1;jettySize=auto;html=1;entryX=0;entryY=0.5;entryDx=0;entryDy=0;fillColor=#d5e8d4;strokeColor=#82b366;endArrow=none;endFill=0;" edge="1" parent="1" source="lfhc9RgH_AEZunEd3_dt-13" target="lfhc9RgH_AEZunEd3_dt-2">
          <mxGeometry relative="1" as="geometry" />
        </mxCell>
        <mxCell id="lfhc9RgH_AEZunEd3_dt-13" value="titulo" style="ellipse;whiteSpace=wrap;html=1;fillColor=#d5e8d4;strokeColor=#82b366;" vertex="1" parent="1">
          <mxGeometry x="320" y="600" width="100" height="60" as="geometry" />
        </mxCell>
        <mxCell id="lfhc9RgH_AEZunEd3_dt-21" style="edgeStyle=orthogonalEdgeStyle;rounded=0;orthogonalLoop=1;jettySize=auto;html=1;exitX=1;exitY=0;exitDx=0;exitDy=0;entryX=0;entryY=0.75;entryDx=0;entryDy=0;fillColor=#d5e8d4;strokeColor=#82b366;endArrow=none;endFill=0;" edge="1" parent="1" source="lfhc9RgH_AEZunEd3_dt-14" target="lfhc9RgH_AEZunEd3_dt-2">
          <mxGeometry relative="1" as="geometry" />
        </mxCell>
        <mxCell id="lfhc9RgH_AEZunEd3_dt-14" value="resumo" style="ellipse;whiteSpace=wrap;html=1;fillColor=#d5e8d4;strokeColor=#82b366;" vertex="1" parent="1">
          <mxGeometry x="360" y="680" width="100" height="60" as="geometry" />
        </mxCell>
        <mxCell id="lfhc9RgH_AEZunEd3_dt-15" value="texto" style="ellipse;whiteSpace=wrap;html=1;fillColor=#d5e8d4;strokeColor=#82b366;" vertex="1" parent="1">
          <mxGeometry x="485" y="680" width="100" height="60" as="geometry" />
        </mxCell>
        <mxCell id="lfhc9RgH_AEZunEd3_dt-16" value="nome_img" style="ellipse;whiteSpace=wrap;html=1;fillColor=#d5e8d4;strokeColor=#82b366;" vertex="1" parent="1">
          <mxGeometry x="600" y="677" width="100" height="60" as="geometry" />
        </mxCell>
        <mxCell id="lfhc9RgH_AEZunEd3_dt-24" style="edgeStyle=orthogonalEdgeStyle;rounded=0;orthogonalLoop=1;jettySize=auto;html=1;exitX=0;exitY=0;exitDx=0;exitDy=0;entryX=1;entryY=0.75;entryDx=0;entryDy=0;fillColor=#d5e8d4;strokeColor=#82b366;endArrow=none;endFill=0;" edge="1" parent="1" source="lfhc9RgH_AEZunEd3_dt-17" target="lfhc9RgH_AEZunEd3_dt-2">
          <mxGeometry relative="1" as="geometry" />
        </mxCell>
        <mxCell id="lfhc9RgH_AEZunEd3_dt-17" value="data_publicacao" style="ellipse;whiteSpace=wrap;html=1;fillColor=#d5e8d4;strokeColor=#82b366;" vertex="1" parent="1">
          <mxGeometry x="650" y="600" width="100" height="60" as="geometry" />
        </mxCell>
        <mxCell id="lfhc9RgH_AEZunEd3_dt-20" style="edgeStyle=orthogonalEdgeStyle;rounded=0;orthogonalLoop=1;jettySize=auto;html=1;entryX=1;entryY=0.5;entryDx=0;entryDy=0;fillColor=#d5e8d4;strokeColor=#82b366;exitX=0;exitY=0.5;exitDx=0;exitDy=0;endArrow=none;endFill=0;" edge="1" parent="1" source="lfhc9RgH_AEZunEd3_dt-62" target="lfhc9RgH_AEZunEd3_dt-2">
          <mxGeometry relative="1" as="geometry">
            <mxPoint x="650" y="550" as="sourcePoint" />
          </mxGeometry>
        </mxCell>
        <mxCell id="lfhc9RgH_AEZunEd3_dt-22" style="edgeStyle=orthogonalEdgeStyle;rounded=0;orthogonalLoop=1;jettySize=auto;html=1;exitX=0.5;exitY=0;exitDx=0;exitDy=0;entryX=0.083;entryY=1;entryDx=0;entryDy=0;entryPerimeter=0;fillColor=#d5e8d4;strokeColor=#82b366;endArrow=none;endFill=0;" edge="1" parent="1" source="lfhc9RgH_AEZunEd3_dt-15" target="lfhc9RgH_AEZunEd3_dt-2">
          <mxGeometry relative="1" as="geometry" />
        </mxCell>
        <mxCell id="lfhc9RgH_AEZunEd3_dt-23" style="edgeStyle=orthogonalEdgeStyle;rounded=0;orthogonalLoop=1;jettySize=auto;html=1;exitX=0.5;exitY=0;exitDx=0;exitDy=0;entryX=0.891;entryY=1.046;entryDx=0;entryDy=0;entryPerimeter=0;fillColor=#d5e8d4;strokeColor=#82b366;endArrow=none;endFill=0;" edge="1" parent="1" source="lfhc9RgH_AEZunEd3_dt-16" target="lfhc9RgH_AEZunEd3_dt-2">
          <mxGeometry relative="1" as="geometry" />
        </mxCell>
        <mxCell id="lfhc9RgH_AEZunEd3_dt-42" style="edgeStyle=orthogonalEdgeStyle;rounded=0;orthogonalLoop=1;jettySize=auto;html=1;entryX=0;entryY=0;entryDx=0;entryDy=0;fillColor=#dae8fc;strokeColor=#6c8ebf;endArrow=none;endFill=0;" edge="1" parent="1" source="lfhc9RgH_AEZunEd3_dt-25" target="lfhc9RgH_AEZunEd3_dt-1">
          <mxGeometry relative="1" as="geometry" />
        </mxCell>
        <mxCell id="lfhc9RgH_AEZunEd3_dt-25" value="nivel_acesso" style="ellipse;whiteSpace=wrap;html=1;fillColor=#dae8fc;strokeColor=#6c8ebf;" vertex="1" parent="1">
          <mxGeometry x="340" y="50" width="100" height="60" as="geometry" />
        </mxCell>
        <mxCell id="lfhc9RgH_AEZunEd3_dt-59" style="edgeStyle=orthogonalEdgeStyle;rounded=0;orthogonalLoop=1;jettySize=auto;html=1;entryX=0;entryY=0.25;entryDx=0;entryDy=0;fillColor=#d5e8d4;strokeColor=#82b366;endArrow=none;endFill=0;" edge="1" parent="1" source="lfhc9RgH_AEZunEd3_dt-58" target="lfhc9RgH_AEZunEd3_dt-2">
          <mxGeometry relative="1" as="geometry" />
        </mxCell>
        <mxCell id="lfhc9RgH_AEZunEd3_dt-58" value="&lt;u&gt;id_noticia&lt;/u&gt;" style="ellipse;whiteSpace=wrap;html=1;fillColor=#d5e8d4;strokeColor=#82b366;" vertex="1" parent="1">
          <mxGeometry x="310" y="520" width="100" height="60" as="geometry" />
        </mxCell>
        <mxCell id="lfhc9RgH_AEZunEd3_dt-62" value="&lt;span style=&quot;border-bottom: 1px dotted&quot;&gt;id_usuario&lt;/span&gt;" style="ellipse;whiteSpace=wrap;html=1;align=center;fillColor=#d5e8d4;strokeColor=#82b366;" vertex="1" parent="1">
          <mxGeometry x="660" y="530" width="100" height="40" as="geometry" />
        </mxCell>
      </root>
    </mxGraphModel>
  </diagram>
</mxfile>
